<?xml version="1.0" standalone="no"?>
<!DOCTYPE svg PUBLIC "-//W3C//DTD SVG 20010904//EN"
 "http://www.w3.org/TR/2001/REC-SVG-20010904/DTD/svg10.dtd">
<svg version="1.0" xmlns="http://www.w3.org/2000/svg"
 width="512.000000pt" height="512.000000pt" viewBox="0 0 512.000000 512.000000"
 preserveAspectRatio="xMidYMid meet">

<g transform="translate(0.000000,512.000000) scale(0.100000,-0.100000)"
fill="#c90303" stroke="none">
<path d="M0 2560 l0 -2560 2560 0 2560 0 0 2560 0 2560 -2560 0 -2560 0 0
-2560z m2685 1767 c36 -18 138 -114 360 -336 l310 -311 -243 0 -242 0 0 -370
0 -370 -320 0 -320 0 0 370 0 370 -242 0 -243 0 310 311 c359 360 376 371 510
365 51 -2 83 -10 120 -29z m-1245 -1759 l0 -803 -311 310 c-359 358 -364 365
-364 495 0 70 4 93 24 130 15 29 133 155 334 358 172 171 313 312 314 312 2 0
3 -361 3 -802z m2868 132 c22 -45 27 -69 27 -130 0 -127 -10 -140 -365 -495
l-310 -310 0 805 0 805 310 -310 c246 -245 316 -321 338 -365z m-1438 -870 l0
-370 242 0 243 0 -310 -310 c-357 -358 -367 -365 -500 -365 -125 1 -135 8
-490 364 l-310 311 243 0 242 0 0 370 0 370 320 0 320 0 0 -370z"/>
</g>
</svg>
